<?xml version="1.0" encoding="UTF-8"?><svg id="_圖層_1" xmlns="http://www.w3.org/2000/svg" viewBox="0 0 16 16"><defs><style>.cls-1{fill:#eae4de;}.cls-2{fill:#8a4823;}</style></defs><rect class="cls-1" x="-.99" y="-1.33" width="18.15" height="18.15"/><path class="cls-2" d="M10.76,8.4c-1.09,2.04-2.04,2.46-3.48,2.46-2.05,0-3.63-1.77-3.63-4.28,0-1.26,.38-2.31,1.16-3.15,.71-.76,1.61-1.12,2.72-1.12,.49,0,1.09,.2,1.8,.56l.44-.25h.17l.6,2.08h-.31c-.28-.53-1.04-2.02-2.7-2.02-2.03,0-3.2,1.81-3.2,3.73,0,1.71,.74,4.04,3.32,4.04,1.34,0,2.18-1.09,2.78-2.22l.24-.43,.41-.06-.32,.66Z"/><path class="cls-2" d="M11.14,12.05c.09,.25,.32,.37,.55,.37h.35v.27h-2.26v-.27h.26c.44-.02,.58-.11,.58-.36,0-.08-.03-.17-.06-.28l-.46-1.29-2.87,.24-.33,.96c-.06,.15-.09,.27-.09,.37,0,.26,.19,.35,.51,.36h.38v.27h-2.24v-.27c.64,0,.81,0,1.12-.73l2-5.24,.49-.23,2.08,5.83Zm-2.35-5.3l-1.47,3.72,2.68-.24-1.21-3.48Z"/><path class="cls-1" d="M9.51,10.12l.44-.03,.44,1.24s-1.79-.08-2.35-.52c.98-.2,1.46-.69,1.46-.69Z"/></svg>